<svg width="30" height="30" viewBox="0 0 30 30" fill="none" xmlns="http://www.w3.org/2000/svg">
    <path opacity="0.4"
        d="M22.9375 24.6C22.606 25.4568 22.0222 26.1928 21.2633 26.7106C20.5044 27.2284 19.6062 27.5037 18.6875 27.5H11.3125C10.3934 27.5054 9.49443 27.2309 8.73522 26.7128C7.97601 26.1948 7.39256 25.4578 7.06251 24.6C6.37501 22.825 6.85001 20.8625 8.25001 19.5875L13.3125 15H16.7L21.75 19.5875C22.432 20.2046 22.9107 21.0142 23.1227 21.9092C23.3347 22.8042 23.2702 23.7425 22.9375 24.6Z"
        fill="#5925DC" />
    <path
        d="M17.275 22.6763H12.725C12.4996 22.6763 12.2834 22.5867 12.124 22.4273C11.9646 22.2679 11.875 22.0517 11.875 21.8263C11.875 21.6008 11.9646 21.3846 12.124 21.2252C12.2834 21.0658 12.4996 20.9763 12.725 20.9763H17.275C17.75 20.9763 18.125 21.3638 18.125 21.8263C18.125 22.2888 17.7375 22.6763 17.275 22.6763ZM22.9375 5.40001C22.606 4.5432 22.0221 3.80722 21.2633 3.2894C20.5044 2.77157 19.6062 2.49631 18.6875 2.50001H11.3125C10.393 2.49653 9.4941 2.7725 8.73495 3.29136C7.9758 3.81022 7.39221 4.54748 7.06148 5.40547C6.73076 6.26346 6.66851 7.20168 6.88299 8.09584C7.09747 8.99001 7.57855 9.7979 8.2625 10.4125L13.3125 15H16.7L21.75 10.4125C22.432 9.79538 22.9107 8.9858 23.1227 8.0908C23.3347 7.1958 23.2702 6.25752 22.9375 5.40001ZM17.275 9.03751H12.725C12.4996 9.03751 12.2834 8.94795 12.124 8.78855C11.9646 8.62914 11.875 8.41294 11.875 8.18751C11.875 7.72501 12.2625 7.33751 12.725 7.33751H17.275C17.75 7.33751 18.125 7.72501 18.125 8.18751C18.125 8.65001 17.7375 9.03751 17.275 9.03751Z"
        fill="#5925DC" />
</svg>