<svg width="30" height="30" viewBox="0 0 30 30" fill="none" xmlns="http://www.w3.org/2000/svg">
    <path opacity="0.4"
        d="M20.3 4.56H9.7C6.6125 4.56 4.1125 7.0725 4.1125 10.1475V21.91C4.1125 24.985 6.625 27.4975 9.7 27.4975H20.2875C23.375 27.4975 25.875 24.985 25.875 21.91V10.1475C25.8875 7.06 23.375 4.56 20.3 4.56Z"
        fill="#5925DC" />
    <path
        d="M17.9375 2.5H12.0625C10.7625 2.5 9.7 3.55 9.7 4.85V6.025C9.7 7.325 10.75 8.375 12.05 8.375H17.9375C19.2375 8.375 20.2875 7.325 20.2875 6.025V4.85C20.3 3.55 19.2375 2.5 17.9375 2.5ZM18.1625 19.5237L16.35 17.7112L18.1 15.9612C18.4625 15.5987 18.4625 14.9987 18.1 14.6362C17.9236 14.4619 17.6855 14.3641 17.4375 14.3641C17.1895 14.3641 16.9514 14.4619 16.775 14.6362L15.025 16.3862L13.2125 14.5737C13.0359 14.3997 12.7979 14.3021 12.55 14.3021C12.3021 14.3021 12.0641 14.3997 11.8875 14.5737C11.525 14.9362 11.525 15.5362 11.8875 15.8987L13.7 17.7112L11.8375 19.5737C11.475 19.9362 11.475 20.5362 11.8375 20.8987C12.025 21.0862 12.2625 21.1737 12.5 21.1737C12.7375 21.1737 12.975 21.0862 13.1625 20.8987L15.025 19.0362L16.8375 20.8487C17.025 21.0362 17.2625 21.1237 17.5 21.1237C17.7375 21.1237 17.975 21.0362 18.1625 20.8487C18.525 20.4862 18.525 19.8987 18.1625 19.5237Z"
        fill="#5925DC" />
</svg>