<svg width="30" height="30" viewBox="0 0 30 30" fill="none" xmlns="http://www.w3.org/2000/svg">
    <path opacity="0.4"
        d="M21.85 13.1875C21.325 13.7 21.025 14.4375 21.1 15.225C21.2125 16.575 22.45 17.5625 23.8 17.5625H26.25V19.375C26.25 23.125 23.75 25.625 20 25.625H8.75C5 25.625 2.5 23.125 2.5 19.375V10.625C2.5 7.225 4.55 4.85 7.7375 4.45C8.0625 4.4 8.4 4.375 8.75 4.375H20C20.325 4.375 20.6375 4.3875 20.9375 4.4375C24.1625 4.8125 26.25 7.2 26.25 10.625V12.4375H23.65C22.95 12.4375 22.3125 12.7125 21.85 13.1875Z"
        fill="#5925DC" />
    <path
        d="M27.5 13.7125V16.2875C27.5 16.975 26.95 17.5375 26.25 17.5625H23.8C22.45 17.5625 21.2125 16.575 21.1 15.225C21.025 14.4375 21.325 13.7 21.85 13.1875C22.3125 12.7125 22.95 12.4375 23.65 12.4375H26.25C26.95 12.4625 27.5 13.025 27.5 13.7125Z"
        fill="#5925DC" />
</svg>