<svg width="30" height="30" viewBox="0 0 30 30" fill="none" xmlns="http://www.w3.org/2000/svg">
    <path opacity="0.4"
        d="M11.25 2.5C7.975 2.5 5.3125 5.1625 5.3125 8.4375C5.3125 11.65 7.825 14.25 11.1 14.3625C11.2 14.35 11.3 14.35 11.375 14.3625H11.4625C12.9992 14.3112 14.4557 13.6643 15.5241 12.5586C16.5925 11.4529 17.189 9.97505 17.1875 8.4375C17.1875 5.1625 14.525 2.5 11.25 2.5Z"
        fill="#5925DC" />
    <path
        d="M17.6 17.6863C14.1125 15.3613 8.42501 15.3613 4.91251 17.6863C3.32501 18.7488 2.45001 20.1863 2.45001 21.7238C2.45001 23.2613 3.32501 24.6863 4.90001 25.7363C6.65001 26.9113 8.95001 27.4988 11.25 27.4988C13.55 27.4988 15.85 26.9113 17.6 25.7363C19.175 24.6738 20.05 23.2488 20.05 21.6988C20.0375 20.1613 19.175 18.7363 17.6 17.6863Z"
        fill="#5925DC" />
    <path opacity="0.4"
        d="M24.9875 9.17249C25.1875 11.5975 23.4625 13.7225 21.075 14.01H21.0125C20.9375 14.01 20.8625 14.01 20.8 14.035C19.5875 14.0975 18.475 13.71 17.6375 12.9975C18.925 11.8475 19.6625 10.1225 19.5125 8.24749C19.4267 7.2725 19.0956 6.33506 18.55 5.52249C19.205 5.20384 19.9277 5.04932 20.6557 5.07227C21.3837 5.09521 22.0952 5.29492 22.7289 5.65418C23.3625 6.01344 23.8992 6.52145 24.2927 7.1344C24.6862 7.74735 24.9246 8.44682 24.9875 9.17249Z"
        fill="#5925DC" />
    <path
        d="M27.485 20.7375C27.385 21.95 26.61 23 25.31 23.7125C24.06 24.4 22.485 24.725 20.9225 24.6875C21.8225 23.875 22.3475 22.8625 22.4475 21.7875C22.5725 20.2375 21.835 18.75 20.36 17.5625C19.5225 16.9 18.5475 16.375 17.485 15.9875C20.2475 15.1875 23.7225 15.725 25.86 17.45C27.01 18.375 27.5975 19.5375 27.485 20.7375Z"
        fill="#5925DC" />
</svg>